{
  "asset": {
    "generator": "Khronos glTF Blender I/O v4.4.56",
    "version": "2.0"
  },
  "scene": 0,
  "scenes": [
    {
      "name": "Scene",
      "nodes": [
        0
      ]
    }
  ],
  "nodes": [
    {
      "mesh": 0,
      "name": "vintage_video_camera"
    }
  ],
  "materials": [
    {
      "doubleSided": true,
      "name": "vintage_video_camera",
      "normalTexture": {
        "index": 0
      },
      "pbrMetallicRoughness": {
        "baseColorTexture": {
          "index": 1
        },
        "metallicRoughnessTexture": {
          "index": 2
        }
      }
    },
    {
      "alphaMode": "BLEND",
      "doubleSided": true,
      "name": "vintage_video_camera_glass",
      "normalTexture": {
        "index": 3
      },
      "pbrMetallicRoughness": {
        "baseColorTexture": {
          "index": 4
        },
        "metallicRoughnessTexture": {
          "index": 5
        }
      }
    }
  ],
  "meshes": [
    {
      "name": "Cube.029",
      "primitives": [
        {
          "attributes": {
            "POSITION": 0,
            "NORMAL": 1,
            "TEXCOORD_0": 2
          },
          "indices": 3,
          "material": 0
        },
        {
          "attributes": {
            "POSITION": 4,
            "NORMAL": 5,
            "TEXCOORD_0": 6
          },
          "indices": 7,
          "material": 1
        }
      ]
    }
  ],
  "textures": [
    {
      "sampler": 0,
      "source": 0
    },
    {
      "sampler": 0,
      "source": 1
    },
    {
      "sampler": 0,
      "source": 2
    },
    {
      "sampler": 0,
      "source": 0
    },
    {
      "sampler": 0,
      "source": 1
    },
    {
      "sampler": 0,
      "source": 2
    }
  ],
  "images": [
    {
      "mimeType": "image/jpeg",
      "name": "vintage_video_camera_nor_gl",
      "uri": "textures/vintage_video_camera_nor_gl_1k.jpg"
    },
    {
      "mimeType": "image/jpeg",
      "name": "vintage_video_camera_diff",
      "uri": "textures/vintage_video_camera_diff_1k.jpg"
    },
    {
      "mimeType": "image/jpeg",
      "name": "vintage_video_camera_metal-vintage_video_camera_rough",
      "uri": "textures/vintage_video_camera_arm_1k.jpg"
    }
  ],
  "accessors": [
    {
      "bufferView": 0,
      "componentType": 5126,
      "count": 17601,
      "max": [
        0.03399982303380966,
        0.14321821928024292,
        0.08314504474401474
      ],
      "min": [
        -0.03720693662762642,
        -0.0017817169427871704,
        -0.049438245594501495
      ],
      "type": "VEC3"
    },
    {
      "bufferView": 1,
      "componentType": 5126,
      "count": 17601,
      "type": "VEC3"
    },
    {
      "bufferView": 2,
      "componentType": 5126,
      "count": 17601,
      "type": "VEC2"
    },
    {
      "bufferView": 3,
      "componentType": 5123,
      "count": 49842,
      "type": "SCALAR"
    },
    {
      "bufferView": 4,
      "componentType": 5126,
      "count": 1176,
      "max": [
        0.02263367734849453,
        0.140951007604599,
        0.07967834919691086
      ],
      "min": [
        -0.031184587627649307,
        0.028185974806547165,
        -0.047053296118974686
      ],
      "type": "VEC3"
    },
    {
      "bufferView": 5,
      "componentType": 5126,
      "count": 1176,
      "type": "VEC3"
    },
    {
      "bufferView": 6,
      "componentType": 5126,
      "count": 1176,
      "type": "VEC2"
    },
    {
      "bufferView": 7,
      "componentType": 5123,
      "count": 6204,
      "type": "SCALAR"
    }
  ],
  "bufferViews": [
    {
      "buffer": 0,
      "byteLength": 211212,
      "byteOffset": 0,
      "target": 34962
    },
    {
      "buffer": 0,
      "byteLength": 211212,
      "byteOffset": 211212,
      "target": 34962
    },
    {
      "buffer": 0,
      "byteLength": 140808,
      "byteOffset": 422424,
      "target": 34962
    },
    {
      "buffer": 0,
      "byteLength": 99684,
      "byteOffset": 563232,
      "target": 34963
    },
    {
      "buffer": 0,
      "byteLength": 14112,
      "byteOffset": 662916,
      "target": 34962
    },
    {
      "buffer": 0,
      "byteLength": 14112,
      "byteOffset": 677028,
      "target": 34962
    },
    {
      "buffer": 0,
      "byteLength": 9408,
      "byteOffset": 691140,
      "target": 34962
    },
    {
      "buffer": 0,
      "byteLength": 12408,
      "byteOffset": 700548,
      "target": 34963
    }
  ],
  "samplers": [
    {
      "magFilter": 9729,
      "minFilter": 9987
    }
  ],
  "buffers": [
    {
      "byteLength": 712956,
      "uri": "vintage_video_camera.bin"
    }
  ]
}